<svg width="16" height="16" viewBox="0 0 16 16" fill="currentColor" class="mr-2 text-gray-500"><path d="M8 0C3.6 0 0 3.6 0 8s3.6 8 8 8 8-3.6 8-8-3.6-8-8-8zM1.8 8c0-.8.2-1.6.4-2.3.5.3 1.2.6 1.9.7C4 7 4 7.5 4 8s0 1 .1 1.6c-.7.1-1.4.4-1.9.7-.2-.7-.4-1.5-.4-2.3zm4 0c0-.4 0-.8.1-1.2.7.1 1.4.1 2.1.1s1.4 0 2.1-.1c0 .4.1.8.1 1.2s0 .8-.1 1.2c-.7-.1-1.4-.1-2.1-.1s-1.4 0-2.1.1c-.1-.4-.1-.8-.1-1.2zm6.1-1.6c.7-.2 1.3-.4 1.8-.7.3.7.5 1.5.5 2.3s-.2 1.6-.4 2.3c-.5-.3-1.1-.6-1.8-.7V8c0-.5 0-1-.1-1.6zm1-2.2c-.2.2-.6.3-1.2.5-.2-.8-.4-1.5-.7-2.1.7.3 1.3.9 1.9 1.6zM8 1.8c.1 0 .6.1 1.2 1.3.3.6.5 1.2.7 1.9-.6.1-1.2.1-1.9.1s-1.3 0-1.9-.1c.2-.7.4-1.3.6-1.8.7-1.3 1.2-1.4 1.3-1.4zm-2.9.7c-.3.7-.5 1.4-.7 2.2-.6-.2-1-.3-1.3-.5.6-.7 1.2-1.3 2-1.7zm-2 9.3c.2-.2.6-.3 1.2-.5.2.8.4 1.5.7 2.1-.7-.3-1.3-.9-1.9-1.6zM8 14.2c-.1 0-.6-.1-1.2-1.3-.3-.5-.5-1.1-.6-1.8.6-.1 1.2-.1 1.9-.1s1.3 0 1.9.1c-.2.7-.4 1.3-.6 1.8-.8 1.2-1.3 1.3-1.4 1.3zm2.9-.7c.3-.6.5-1.4.7-2.1.6.2 1 .3 1.2.5-.5.6-1.1 1.2-1.9 1.6z"></path></svg>